<svg width="82" height="28" viewBox="0 0 82 28" fill="none" xmlns="http://www.w3.org/2000/svg">
<path d="M11.928 9.424C11.816 9.312 11.608 9.16 11.304 8.968C11.016 8.776 10.656 8.592 10.224 8.416C9.808 8.24 9.352 8.088 8.856 7.96C8.36 7.816 7.856 7.744 7.344 7.744C6.448 7.744 5.768 7.912 5.304 8.248C4.856 8.584 4.632 9.056 4.632 9.664C4.632 10.128 4.776 10.496 5.064 10.768C5.352 11.04 5.784 11.272 6.36 11.464C6.936 11.656 7.656 11.864 8.52 12.088C9.64 12.36 10.608 12.696 11.424 13.096C12.256 13.48 12.888 13.992 13.32 14.632C13.768 15.256 13.992 16.088 13.992 17.128C13.992 18.04 13.824 18.824 13.488 19.48C13.152 20.12 12.688 20.64 12.096 21.04C11.504 21.44 10.832 21.736 10.08 21.928C9.328 22.104 8.528 22.192 7.68 22.192C6.832 22.192 5.984 22.104 5.136 21.928C4.288 21.752 3.472 21.504 2.688 21.184C1.904 20.848 1.184 20.448 0.528 19.984L1.992 17.128C2.136 17.272 2.392 17.464 2.76 17.704C3.128 17.928 3.576 18.16 4.104 18.4C4.632 18.624 5.208 18.816 5.832 18.976C6.456 19.136 7.088 19.216 7.728 19.216C8.624 19.216 9.304 19.064 9.768 18.76C10.232 18.456 10.464 18.024 10.464 17.464C10.464 16.952 10.28 16.552 9.912 16.264C9.544 15.976 9.032 15.728 8.376 15.52C7.72 15.296 6.944 15.056 6.048 14.8C4.976 14.496 4.08 14.16 3.36 13.792C2.64 13.408 2.104 12.928 1.752 12.352C1.4 11.776 1.224 11.056 1.224 10.192C1.224 9.024 1.496 8.048 2.04 7.264C2.6 6.464 3.352 5.864 4.296 5.464C5.24 5.048 6.288 4.84 7.44 4.84C8.24 4.84 8.992 4.928 9.696 5.104C10.416 5.28 11.088 5.512 11.712 5.8C12.336 6.088 12.896 6.4 13.392 6.736L11.928 9.424ZM28.3268 19.096V22H16.4948V4.96H28.1108V7.864H19.8068V11.968H26.9828V14.656H19.8068V19.096H28.3268ZM43.6528 7.864H38.2048V22H34.9168V7.864H29.4688V4.96H43.6528V7.864ZM45.7682 22V4.96H49.0802V22H45.7682Z" fill="#F7F9F9"/>
<g clip-path="url(#clip0_2211_356)">
<path d="M81.8834 3.93994C78.3039 6.46831 74.3895 8.01905 70.2757 9.07275C67.7899 9.70674 66.705 10.8974 66.5357 13.4993C66.5118 13.8632 66.3588 13.938 66.0591 13.8416C65.6861 13.7028 65.3634 13.453 65.1335 13.1252C64.7848 12.6814 64.4725 12.2072 64.1 11.785C62.8006 10.3141 61.2153 10.3902 60 11.965C60.3186 12.1083 60.6447 12.2364 60.9557 12.3974C61.5828 12.722 61.9591 13.2026 62.0581 13.9532C62.2576 15.4482 62.5598 16.9254 63.2735 18.2771C64.3621 20.3249 66.0089 21.4267 68.353 21.3583C69.5378 21.3295 70.7231 21.3807 71.9011 21.5117C74.0421 21.7374 75.5885 22.9344 76.8013 24.6233C77.1538 25.114 77.3908 25.0874 77.8047 24.7615C78.9535 23.8499 79.6057 22.7581 79.2583 21.2112C79.1592 20.7737 78.9786 20.5569 78.5221 20.4504C76.3084 19.9356 74.1913 19.1735 72.3652 17.747C72.2059 17.6202 72.0128 17.5239 71.9074 17.269C73.7369 16.6826 75.4603 15.8005 77.0108 14.657C79.5192 12.7816 81.2751 10.3877 81.8156 7.21642C81.9987 6.14877 82.0865 5.06084 81.8834 3.93994Z" fill="#F7F9F9"/>
<path d="M66.0089 11.6164C66.2836 9.79304 67.5428 8.92828 69.1143 8.39065C70.0299 8.07746 70.0587 8.09648 69.7414 7.13788C68.9763 4.8555 67.3459 3.32631 65.3128 2C65.4382 2.53255 65.5637 2.95987 65.6427 3.39478C66.1429 5.8506 66.0133 8.39495 65.2664 10.7859C65.0557 11.4541 65.0557 11.9752 65.5825 12.4558C65.6638 12.55 65.7333 12.6539 65.7894 12.7652C66.113 12.7436 65.9336 12.4913 65.9612 12.3493C65.9989 12.1097 65.9136 11.8561 66.0089 11.6164Z" fill="#F7F9F9"/>
<path d="M66.0087 11.6165C65.7403 11.9601 66.0627 12.4242 65.7817 12.7653C65.9686 12.9681 66.01 12.8299 66.0125 12.6562C66.02 12.31 66.01 11.9639 66.0087 11.6165Z" fill="#F7F9F9"/>
</g>
<defs>
<clipPath id="clip0_2211_356">
<rect width="22" height="23" fill="white" transform="translate(60 2)"/>
</clipPath>
</defs>
</svg>
