<svg width="24" height="24" viewBox="0 0 24 24" fill="none" xmlns="http://www.w3.org/2000/svg">
<path d="M21 10C21 17 12 23 12 23C12 23 3 17 3 10C3 7.61308 3.94821 5.3239 5.63604 3.63607C7.32387 1.94824 9.61305 1.00003 12 1.00003C14.3869 1.00003 16.6761 1.94824 18.364 3.63607C20.0518 5.3239 21 7.61308 21 10Z" stroke="#2166A5" stroke-width="2" stroke-linecap="round" stroke-linejoin="round"/>
<path d="M12 13C13.6569 13 15 11.6569 15 10C15 8.34318 13.6569 7.00003 12 7.00003C10.3431 7.00003 9 8.34318 9 10C9 11.6569 10.3431 13 12 13Z" stroke="#2166A5" stroke-width="2" stroke-linecap="round" stroke-linejoin="round"/>
</svg>
