<svg width="24" height="25" viewBox="0 0 24 25" fill="none" xmlns="http://www.w3.org/2000/svg">
<g clip-path="url(#clip0_2246_34)">
<path d="M18.1356 13.3662C17.9146 13.256 16.4778 12.5942 16.2568 12.4839C16.0358 12.3737 15.8147 12.3737 15.5937 12.5942C15.3727 12.8148 14.9306 13.4765 14.7096 13.6971C14.599 13.9177 14.378 13.9177 14.157 13.8074C13.3833 13.4765 12.6097 13.0354 11.9466 12.4839C11.394 11.9325 10.8414 11.2708 10.3994 10.6091C10.2888 10.3885 10.3994 10.1679 10.5099 10.0576C10.6204 9.94735 10.7309 9.72678 10.9519 9.61649C11.0625 9.5062 11.173 9.28563 11.173 9.17534C11.2835 9.06505 11.2835 8.84448 11.173 8.73419C11.0625 8.62391 10.5099 7.30047 10.2888 6.74903C10.1783 5.97702 9.95728 5.97702 9.73625 5.97702C9.62573 5.97702 9.4047 5.97702 9.18366 5.97702C8.96262 5.97702 8.63107 6.1976 8.52055 6.30788C7.85745 6.9696 7.52589 7.74161 7.52589 8.62391C7.63641 9.61649 7.96796 10.6091 8.63107 11.4914C9.84677 13.256 11.394 14.6897 13.2728 15.572C13.8254 15.7926 14.2675 16.0131 14.8201 16.1234C15.3727 16.344 15.9252 16.344 16.5884 16.2337C17.362 16.1234 18.0251 15.572 18.4672 14.9103C18.6882 14.4691 18.6882 14.028 18.5777 13.5868C18.5777 13.5868 18.3566 13.4765 18.1356 13.3662ZM20.8986 3.33014C16.5884 -0.971049 9.62573 -0.971049 5.31554 3.33014C1.77896 6.85932 1.11586 12.2634 3.54725 16.5646L2 22.1892L7.85745 20.6452C9.51521 21.5275 11.2835 21.9686 13.0518 21.9686C19.1303 21.9686 23.9931 17.116 23.9931 11.0502C24.1036 8.18276 22.8879 5.42559 20.8986 3.33014ZM17.9146 18.7703C16.4778 19.6526 14.8201 20.204 13.0518 20.204C11.394 20.204 9.84677 19.7629 8.41004 18.9909L8.07848 18.7703L4.65243 19.6526L5.53657 16.344L5.31554 16.0131C2.66311 11.6017 3.98932 6.08731 8.29952 3.33014C12.6097 0.572967 18.1356 2.0067 20.788 6.1976C23.4405 10.4988 22.2248 16.1234 17.9146 18.7703Z" fill="white"/>
</g>
<defs>
<clipPath id="clip0_2246_34">
<rect width="24" height="24.0927" fill="white" transform="translate(0 0.104248)"/>
</clipPath>
</defs>
</svg>
